<svg width="22" height="21" viewBox="0 0 22 21" fill="none" xmlns="http://www.w3.org/2000/svg">
<path d="M21.4107 7.5H15.3214C14.6683 7.5 14.1429 6.99844 14.1429 6.375V0.5625C14.1429 0.253125 14.408 0 14.7321 0H16.6964C17.0205 0 17.2857 0.253125 17.2857 0.5625V4.5H21.4107C21.7348 4.5 22 4.75313 22 5.0625V6.9375C22 7.24687 21.7348 7.5 21.4107 7.5ZM7.85714 6.375V0.5625C7.85714 0.253125 7.59196 0 7.26786 0H5.30357C4.97946 0 4.71429 0.253125 4.71429 0.5625V4.5H0.589286C0.265179 4.5 0 4.75313 0 5.0625V6.9375C0 7.24687 0.265179 7.5 0.589286 7.5H6.67857C7.3317 7.5 7.85714 6.99844 7.85714 6.375ZM7.85714 20.4375V14.625C7.85714 14.0016 7.3317 13.5 6.67857 13.5H0.589286C0.265179 13.5 0 13.7531 0 14.0625V15.9375C0 16.2469 0.265179 16.5 0.589286 16.5H4.71429V20.4375C4.71429 20.7469 4.97946 21 5.30357 21H7.26786C7.59196 21 7.85714 20.7469 7.85714 20.4375ZM17.2857 20.4375V16.5H21.4107C21.7348 16.5 22 16.2469 22 15.9375V14.0625C22 13.7531 21.7348 13.5 21.4107 13.5H15.3214C14.6683 13.5 14.1429 14.0016 14.1429 14.625V20.4375C14.1429 20.7469 14.408 21 14.7321 21H16.6964C17.0205 21 17.2857 20.7469 17.2857 20.4375Z" fill="#E5D9D1"/>
</svg>
