<svg width="54" height="33" viewBox="0 0 54 33" fill="none" xmlns="http://www.w3.org/2000/svg">
<path d="M37.515 18.6588C37.4584 18.5132 37.4063 18.3675 37.3474 18.2266C41.4199 17.7309 44.045 16.9769 44.0404 16.1476C44.0336 15.5416 42.6271 14.9966 40.2828 14.5737C40.3395 14.5056 40.3916 14.4305 40.4346 14.3553C41.25 14.4821 45.259 15.1634 45.2545 16.258C45.2522 17.2094 42.2035 18.095 37.515 18.6588ZM39.4742 20.0471C39.2341 20.1293 38.7902 20.0471 38.3938 19.8028C38.9442 19.7582 39.4878 19.7136 40.0178 19.6642C39.8344 19.8334 39.6668 19.9813 39.4742 20.0471ZM25.2615 23.256C23.4835 22.8261 22.0339 21.7009 21.1188 20.2233C22.9716 20.2703 24.8991 20.2867 26.8719 20.2726C28.8039 20.2585 30.6861 20.2139 32.5026 20.1434C31.0213 22.61 28.1448 23.9513 25.2615 23.256ZM8.09969 16.5023C8.09063 15.5251 11.2163 14.6513 15.9411 14.0945C15.9411 14.0945 15.7621 13.5495 15.4178 13.1995C15.2797 13.0609 15.1393 12.9576 14.9898 12.8801C15.2797 13.0233 15.5628 13.2512 15.7576 13.5613C15.9229 13.8244 16.0158 14.0922 16.1041 14.3506C12.2854 14.8462 9.80295 15.5768 9.80975 16.3731C9.81428 17.0121 11.3749 17.5853 13.9547 18.0152C13.7146 18.142 13.4881 18.2971 13.3137 18.4826C10.0906 17.9823 8.10422 17.2846 8.09969 16.5023ZM14.9581 12.866C14.7112 12.7462 14.4416 12.7015 14.1381 12.718C14.3329 12.6639 14.6455 12.7156 14.9581 12.866ZM17.5039 15.9879C16.9875 16.1241 16.6976 16.2721 16.65 16.4248C16.5707 16.6785 17.3114 16.9134 18.5956 17.0967C18.4778 17.4021 18.3419 17.6464 18.1811 17.8296C15.5152 17.4749 13.8346 16.951 13.8301 16.3567C13.8256 15.908 14.8199 15.4781 16.4212 15.1328C16.4869 15.2479 16.5685 15.3607 16.6704 15.4688C16.8878 15.7013 17.1959 15.8704 17.5039 15.9879ZM20.2241 14.8697C21.0667 11.1112 24.6862 8.77385 28.3101 9.64771C31.3928 10.3924 33.4834 13.2207 33.5196 16.3614C33.2116 16.7913 30.4913 17.0426 26.8175 17.0544C23.1505 17.0638 20.3012 16.7913 20.0497 16.4201C20.052 15.908 20.1086 15.3889 20.2241 14.8697ZM26.9398 18.8232C29.1459 18.8092 31.2546 18.7316 33.1889 18.6048C33.1391 18.7598 33.0892 18.9125 33.0304 19.0629C31.0553 19.1897 28.9239 19.2672 26.6975 19.2813C24.5548 19.2954 22.4959 19.2531 20.5797 19.1615C20.5141 19.0018 20.4529 18.8373 20.3985 18.6706C22.4144 18.7857 24.625 18.8397 26.9398 18.8232ZM26.9058 18.29C24.4665 18.3064 22.1834 18.2172 20.2287 18.0504C20.1698 17.7943 20.1245 17.5336 20.095 17.2705C21.9093 17.4396 24.2807 17.5383 26.8356 17.5312C29.3701 17.5242 31.6895 17.4138 33.4743 17.24C33.4471 17.4866 33.4086 17.7333 33.352 17.9823C31.4517 18.1608 29.2524 18.2736 26.9058 18.29ZM36.0315 14.8251C36.6294 14.7899 37.0734 15.5298 38.0767 15.5087C38.267 15.504 38.5479 15.4617 38.8559 15.3795C39.5603 15.6238 39.9521 15.8939 39.9544 16.1805C39.9567 16.6738 38.8129 17.1366 36.9125 17.4984C36.8922 17.4749 36.8763 17.4561 36.8536 17.4349C36.5841 17.1718 36.1991 17.0051 35.8367 16.9064C36.5932 16.7467 37.0235 16.5658 37.0235 16.3731C37.0235 16.1124 36.267 15.8822 34.9511 15.699C35.2206 15.1587 35.5626 14.8509 36.0315 14.8251ZM53.5964 16.1547C53.4854 14.8462 49.1276 13.6247 40.5909 12.8895C40.575 12.6757 40.566 12.4784 40.6067 12.2998C40.6815 11.9592 41.0257 11.7173 41.3157 11.5928C41.4085 11.581 41.4946 11.5693 41.5671 11.5599C41.6282 11.5669 41.6735 11.5646 41.6849 11.5458C41.7415 11.5387 41.78 11.5293 41.7868 11.5246C41.6509 11.4424 41.5105 11.3766 41.361 11.3226C41.1367 11.2404 40.8695 11.1652 40.6271 11.2099C40.5003 11.2333 40.3485 11.3085 40.2579 11.3978C39.7075 11.9663 39.7302 12.7156 39.3859 13.1032C39.1232 13.3969 38.2602 13.6036 37.5784 13.2606C36.8944 12.92 36.5705 12.3163 35.8435 12.126C35.1844 11.9569 34.3282 12.2505 33.9545 12.4596C33.8978 12.4925 33.839 12.5136 33.7823 12.5394C33.7121 11.5951 33.8865 10.9585 34.4414 10.6743C34.9782 10.4018 35.6645 10.9045 36.5818 10.4816C37.1254 10.2256 38.3644 9.2695 38.3259 8.29228C38.2896 7.49124 37.7914 7.01908 37.7053 6.50463C37.6668 6.27911 37.7551 6.04421 37.8797 5.84218C37.9318 5.77641 37.9839 5.73413 38.0156 5.71064C38.1673 5.59788 38.3553 5.50392 38.3372 5.44284C38.3349 5.43579 38.3304 5.43579 38.3236 5.43109C38.4233 5.37002 38.4935 5.32773 38.5026 5.31599C38.3485 5.29485 38.1923 5.2925 38.036 5.30189C37.7981 5.31834 37.5218 5.35357 37.318 5.49687C37.2093 5.56969 37.096 5.69654 37.0484 5.82104C36.7517 6.5657 37.0552 7.24459 36.8831 7.74025C36.7517 8.1161 36.0337 8.65169 35.2772 8.61411C34.5185 8.57652 33.993 8.15369 33.2523 8.27349C32.5819 8.38155 31.9069 8.99701 31.6374 9.34468C31.6147 9.37286 31.5898 9.40105 31.5649 9.42689C31.3044 8.81848 31.2886 8.31108 31.5944 7.89999C31.959 7.41138 32.7903 7.54997 33.4313 6.75128C33.8118 6.27207 34.5185 4.84852 34.0677 3.98875C33.6963 3.28638 33.0462 3.0867 32.7518 2.66387C32.557 2.38433 32.6 1.95444 32.7019 1.64671C32.8401 1.43294 32.9579 1.25911 32.9601 1.23327C32.8129 1.28495 32.6725 1.35073 32.5343 1.4306C32.3237 1.5551 32.0972 1.71483 31.9726 1.93565C31.9069 2.04841 31.8616 2.21519 31.8707 2.34909C31.9205 3.15248 32.4845 3.62699 32.5366 4.14849C32.5796 4.54784 32.1629 5.35592 31.4675 5.666C30.7676 5.97843 30.1176 5.83984 29.5038 6.28616C28.9466 6.68551 28.6023 7.54762 28.5095 7.9822C28.4959 8.04798 28.4732 8.10905 28.4528 8.17013C27.8503 7.69092 27.5672 7.19761 27.6918 6.63853C27.8209 6.03481 28.6272 5.7952 28.8854 4.78509C29.0372 4.18608 29.0938 2.58635 28.3328 2.00847C27.7099 1.53161 27.0395 1.63966 26.6001 1.38596C26.3056 1.21683 26.172 0.812785 26.138 0.48861C26.1743 0.234909 26.2105 0.0187927 26.2037 0C26.0904 0.110407 25.9885 0.23256 25.9002 0.364109C25.762 0.56848 25.6171 0.815134 25.5967 1.06884C25.5831 1.20273 25.608 1.36952 25.6737 1.48932C26.0429 2.1917 26.7473 2.37258 27.0123 2.82126C27.2116 3.16422 27.1663 4.07802 26.6658 4.66764C26.1607 5.25961 25.5129 5.41465 25.1392 6.08884C24.7994 6.69725 24.8379 7.63219 24.9308 8.06677C24.9353 8.08556 24.9376 8.10436 24.9376 8.1208C24.2717 7.94462 23.8617 7.62984 23.7485 7.1013C23.6216 6.49758 24.2535 5.92205 24.0746 4.9002C23.9636 4.29179 23.3611 2.81656 22.4393 2.62628C21.6783 2.46889 21.1165 2.86119 20.616 2.8283C20.3895 2.81186 20.1834 2.66152 20.0226 2.48064C19.9773 2.41251 19.9501 2.35379 19.9365 2.31855C19.864 2.13767 19.7847 1.88867 19.7802 1.94974C19.7757 1.97793 19.7779 2.00142 19.7757 2.02726C19.7326 1.87222 19.6987 1.75947 19.6873 1.74772C19.633 1.89806 19.5922 2.0531 19.5628 2.21049C19.5243 2.4595 19.4948 2.74374 19.5764 2.98334C19.6194 3.10784 19.7123 3.24879 19.8164 3.32866C20.4438 3.80317 21.1528 3.65753 21.5786 3.94882C21.9002 4.17198 22.2309 5.02 22.0203 5.77406C21.8028 6.53282 21.2819 6.958 21.2185 7.73555C21.1596 8.43793 21.5786 9.26246 21.8368 9.61717C21.8866 9.68529 21.9251 9.75812 21.9682 9.82859C21.0984 10.0283 20.4801 9.9343 20.1358 9.4175C19.7961 8.90775 20.172 8.1302 19.633 7.25164C19.3068 6.73014 18.2174 5.60023 17.2887 5.78581C16.53 5.94085 16.1517 6.52342 15.6738 6.68786C15.3567 6.79591 14.9762 6.61973 14.7225 6.42711C14.5685 6.22744 14.4394 6.0583 14.4213 6.04656C14.4235 6.20629 14.4416 6.36838 14.4756 6.52107C14.5254 6.76773 14.6002 7.04257 14.7678 7.23284C14.8516 7.33151 14.9898 7.42782 15.1166 7.45836C15.8686 7.65333 16.4733 7.23989 16.9694 7.3456C17.3521 7.42547 17.9637 8.08087 18.043 8.86311C18.1177 9.64771 17.7893 10.2491 18.0158 10.9937C18.2174 11.6632 18.9059 12.2646 19.2728 12.4901C19.368 12.5441 19.445 12.6193 19.5333 12.678C18.9059 13.1807 18.3578 13.3452 17.8572 13.0656C17.3295 12.772 17.3227 11.9028 16.4575 11.3766C15.9411 11.0642 14.4733 10.5803 13.7304 11.1817C13.1234 11.675 13.0419 12.375 12.6908 12.7462C12.4552 12.9928 12.0408 13.0163 11.7305 12.9646C11.504 12.8589 11.316 12.7649 11.291 12.7673C11.3658 12.9106 11.4519 13.0445 11.5515 13.1666C11.5674 13.1901 11.5878 13.2089 11.6036 13.2324C11.547 13.2442 11.513 13.2536 11.5085 13.2536C4.3149 14.0687 -0.0248081 15.2244 0.000106702 16.5611C0.0250215 17.9776 5.19145 19.1756 12.9082 19.8052C12.9309 20.1881 13.0102 20.531 12.9671 20.8341C12.7723 21.372 12.4009 21.5036 12.2786 21.5341C12.1336 21.567 11.9547 21.6328 11.9094 21.6656C11.8505 21.6774 11.812 21.6868 11.8029 21.6915C11.9411 21.769 12.0861 21.8301 12.231 21.8794C12.4598 21.9546 12.727 22.0227 12.9671 21.964C13.0917 21.9358 13.2412 21.8606 13.3318 21.762C13.8641 21.1817 13.8188 20.4324 14.1517 20.0354C14.188 19.9907 14.2423 19.9485 14.3035 19.9085C14.9626 19.9555 15.6353 19.9978 16.3238 20.0354C16.795 20.3596 17.137 20.7659 17.7236 20.8998C18.385 21.0478 19.2321 20.726 19.6035 20.5052C19.6556 20.4723 19.7123 20.4488 19.7711 20.423C19.821 21.2921 19.6398 21.8841 19.1143 22.1519C18.5798 22.4315 17.8889 21.9334 16.9739 22.3633C16.4303 22.6241 15.1981 23.5872 15.2457 24.5621C15.2842 25.3631 15.787 25.8329 15.8776 26.345C15.9365 26.688 15.7146 27.0521 15.4949 27.2847C15.2819 27.4139 15.0985 27.5196 15.0872 27.5407C15.2412 27.5642 15.3997 27.5666 15.5537 27.5548C15.7938 27.5337 16.0679 27.4961 16.2717 27.3528C16.3782 27.28 16.4869 27.1531 16.5368 27.0286C16.8244 26.284 16.5186 25.6051 16.6885 25.1094C16.8176 24.7265 17.5288 24.1886 18.2876 24.2215C19.0486 24.2567 19.5764 24.6748 20.3147 24.5503C20.9444 24.447 21.5718 23.8926 21.8685 23.5379C22.1154 24.0946 22.1335 24.5691 21.8595 24.9685C21.5174 25.4735 20.6817 25.3725 20.0701 26.2017C19.71 26.695 19.0622 28.1468 19.5469 28.9854C19.9455 29.6713 20.6024 29.8428 20.9172 30.2516C21.0984 30.4888 21.0984 30.8459 21.0395 31.1419C20.9444 31.3087 20.8176 31.4895 20.8719 31.4684C20.8787 31.466 20.8855 31.4637 20.8946 31.4613C20.8198 31.5835 20.77 31.6728 20.7677 31.6892C20.9127 31.6328 21.0509 31.56 21.1822 31.4731C21.3861 31.3392 21.6103 31.1677 21.7236 30.9445C21.7847 30.8271 21.821 30.6627 21.8119 30.5264C21.7281 29.7277 21.146 29.2814 21.0712 28.7599C21.0124 28.3605 21.3974 27.536 22.0792 27.1931C22.7609 26.8524 23.42 26.9628 24.0157 26.4907C24.5548 26.0608 24.8651 25.1893 24.9398 24.75C24.9512 24.6842 24.9738 24.6208 24.9919 24.555C25.8458 25.1259 26.2716 25.6967 26.129 26.3615C25.9953 26.9652 25.189 27.2048 24.9308 28.2126C24.779 28.8116 24.7201 30.409 25.4789 30.9892C26.1018 31.4637 26.7699 31.358 27.2116 31.6117C27.4811 31.7667 27.6125 32.1167 27.6601 32.4245C27.6238 32.5537 27.5808 32.6594 27.617 32.6359C27.6329 32.6265 27.6465 32.6124 27.6601 32.6007C27.6284 32.8144 27.6012 32.9812 27.608 33C27.719 32.8896 27.8232 32.7674 27.9092 32.6335C28.0497 32.4315 28.1924 32.1849 28.215 31.9312C28.2263 31.7996 28.2037 31.6305 28.1403 31.5107C27.7688 30.8083 27.0644 30.6251 26.7994 30.1787C26.6001 29.8287 26.6476 28.9173 27.1505 28.3324C27.6556 27.7404 28.3033 27.5854 28.6793 26.9112C29.0191 26.3027 28.9806 25.3678 28.89 24.9356C28.856 24.7852 28.8696 24.6396 28.8175 24.4939C29.6193 24.6537 30.1108 24.9732 30.2331 25.5557C30.3599 26.1477 29.7416 26.7068 29.9183 27.7146C30.0247 28.3112 30.6159 29.7536 31.5219 29.9415C32.2648 30.0942 32.8175 29.7113 33.3112 29.7465C33.6532 29.77 33.9431 30.1012 34.1017 30.3831C34.1153 30.423 34.1289 30.4559 34.1402 30.4865C34.1515 30.5499 34.1832 30.7707 34.2172 30.806C34.2716 30.6603 34.3123 30.5053 34.3395 30.3502C34.3803 30.1106 34.4075 29.8311 34.3259 29.5938C34.2852 29.4693 34.1946 29.3331 34.0904 29.2556C33.4766 28.7928 32.7789 28.9337 32.3645 28.6518C32.0496 28.431 31.7235 27.5994 31.9341 26.8618C32.147 26.1172 32.6566 25.699 32.7201 24.9379C32.7767 24.252 32.3667 23.4416 32.113 23.0939C32.0609 23.0258 32.0202 22.9482 31.9749 22.8754C32.7155 22.7251 33.2523 22.8308 33.5717 23.2889C33.9137 23.7798 33.5581 24.5503 34.1017 25.403C34.4279 25.9081 35.5218 26.991 36.4256 26.7914C37.1685 26.6246 37.5263 26.0467 37.9952 25.8776C38.3417 25.7507 38.7698 25.9715 39.0167 26.1782C39.0235 26.1876 39.0326 26.1994 39.0394 26.2111C39.0711 26.2581 39.1888 26.4601 39.2341 26.4813C39.2296 26.3826 39.2183 26.2887 39.2047 26.1947C39.2206 26.1383 39.2024 26.0514 39.1503 25.9222C39.096 25.7061 39.019 25.4806 38.874 25.3232C38.7857 25.2245 38.6498 25.1353 38.5252 25.1047C37.7868 24.9309 37.2002 25.3467 36.711 25.2551C36.3372 25.1869 35.7212 24.555 35.6306 23.7892C35.5422 23.0211 35.8525 22.4268 35.617 21.7056C35.4063 21.0478 34.7246 20.4723 34.3554 20.2585C34.3259 20.2421 34.2987 20.221 34.2716 20.2045C34.3395 20.1481 34.4097 20.0965 34.4799 20.0518C34.9669 20.026 35.4494 20.0001 35.925 19.9696C36.3214 20.3126 36.4369 21.0455 37.2228 21.4777C37.7483 21.762 39.2206 22.1801 39.9318 21.5505C40.5139 21.0314 40.566 20.3408 40.8966 19.9579C41.1209 19.7018 41.5286 19.6619 41.8366 19.6971C42.0654 19.7934 42.2556 19.8756 42.2783 19.8709C42.199 19.7323 42.1084 19.6078 42.0065 19.4857C42.002 19.4786 41.9952 19.4739 41.9884 19.4669C49.0732 18.7058 53.7097 17.4796 53.5964 16.1547Z" fill="#F2ECE8"/>
</svg>
