<svg version="1.2" baseProfile="tiny-ps" xmlns="http://www.w3.org/2000/svg" viewBox="0 0 54 33" width="54" height="33">
	<title>logo-svg</title>
	<style>
		tspan { white-space:pre }
		.shp0 { fill: #735985 } 
	</style>
	<path id="Layer" fill-rule="evenodd" class="shp0" d="M41.99 19.47C42 19.47 42 19.48 42.01 19.49C42.11 19.61 42.2 19.73 42.28 19.87C42.26 19.88 42.07 19.79 41.84 19.7C41.53 19.66 41.12 19.7 40.9 19.96C40.57 20.34 40.51 21.03 39.93 21.55C39.22 22.18 37.75 21.76 37.22 21.48C36.44 21.05 36.32 20.31 35.92 19.97C35.45 20 34.97 20.03 34.48 20.05C34.41 20.1 34.34 20.15 34.27 20.2C34.3 20.22 34.33 20.24 34.36 20.26C34.72 20.47 35.41 21.05 35.62 21.71C35.85 22.43 35.54 23.02 35.63 23.79C35.72 24.55 36.34 25.19 36.71 25.26C37.2 25.35 37.79 24.93 38.53 25.1C38.65 25.14 38.79 25.22 38.87 25.32C39.02 25.48 39.1 25.71 39.15 25.92C39.2 26.05 39.22 26.14 39.2 26.19C39.22 26.29 39.23 26.38 39.23 26.48C39.19 26.46 39.07 26.26 39.04 26.21C39.03 26.2 39.02 26.19 39.02 26.18C38.77 25.97 38.34 25.75 38 25.88C37.53 26.05 37.17 26.62 36.43 26.79C35.52 26.99 34.43 25.91 34.1 25.4C33.56 24.55 33.91 23.78 33.57 23.29C33.25 22.83 32.72 22.73 31.97 22.88C32.02 22.95 32.06 23.03 32.11 23.09C32.37 23.44 32.78 24.25 32.72 24.94C32.66 25.7 32.15 26.12 31.93 26.86C31.72 27.6 32.05 28.43 32.36 28.65C32.78 28.93 33.48 28.79 34.09 29.26C34.19 29.33 34.29 29.47 34.33 29.59C34.41 29.83 34.38 30.11 34.34 30.35C34.31 30.51 34.27 30.66 34.22 30.81C34.18 30.77 34.15 30.55 34.14 30.49C34.13 30.46 34.12 30.42 34.1 30.38C33.94 30.1 33.65 29.77 33.31 29.75C32.82 29.71 32.26 30.09 31.52 29.94C30.62 29.75 30.02 28.31 29.92 27.71C29.74 26.71 30.36 26.15 30.23 25.56C30.11 24.97 29.62 24.65 28.82 24.49C28.87 24.64 28.86 24.79 28.89 24.94C28.98 25.37 29.02 26.3 28.68 26.91C28.3 27.59 27.66 27.74 27.15 28.33C26.65 28.92 26.6 29.83 26.8 30.18C27.06 30.63 27.77 30.81 28.14 31.51C28.2 31.63 28.23 31.8 28.21 31.93C28.19 32.18 28.05 32.43 27.91 32.63C27.82 32.77 27.72 32.89 27.61 33C27.6 32.98 27.63 32.81 27.66 32.6C27.65 32.61 27.63 32.63 27.62 32.64C27.58 32.66 27.62 32.55 27.66 32.42C27.61 32.12 27.48 31.77 27.21 31.61C26.77 31.36 26.1 31.46 25.48 30.99C24.72 30.41 24.78 28.81 24.93 28.21C25.19 27.2 26 26.97 26.13 26.36C26.27 25.7 25.85 25.13 24.99 24.55C24.97 24.62 24.95 24.68 24.94 24.75C24.87 25.19 24.55 26.06 24.02 26.49C23.42 26.96 22.76 26.85 22.08 27.19C21.4 27.54 21.01 28.36 21.07 28.76C21.15 29.28 21.73 29.73 21.81 30.53C21.82 30.66 21.78 30.83 21.72 30.94C21.61 31.17 21.39 31.34 21.18 31.47C21.05 31.56 20.91 31.63 20.77 31.69C20.77 31.67 20.82 31.58 20.89 31.46C20.89 31.46 20.88 31.47 20.87 31.47C20.82 31.49 20.94 31.31 21.04 31.14C21.1 30.85 21.1 30.49 20.92 30.25C20.6 29.84 19.95 29.67 19.55 28.99C19.06 28.15 19.71 26.7 20.07 26.2C20.68 25.37 21.52 25.47 21.86 24.97C22.13 24.57 22.12 24.09 21.87 23.54C21.57 23.89 20.94 24.45 20.31 24.55C19.58 24.67 19.05 24.26 18.29 24.22C17.53 24.19 16.82 24.73 16.69 25.11C16.52 25.61 16.82 26.28 16.54 27.03C16.49 27.15 16.38 27.28 16.27 27.35C16.07 27.5 15.79 27.53 15.55 27.55C15.4 27.57 15.24 27.56 15.09 27.54C15.1 27.52 15.28 27.41 15.49 27.28C15.71 27.05 15.94 26.69 15.88 26.34C15.79 25.83 15.28 25.36 15.25 24.56C15.2 23.59 16.43 22.62 16.97 22.36C17.89 21.93 18.58 22.43 19.11 22.15C19.64 21.88 19.82 21.29 19.77 20.42C19.71 20.45 19.66 20.47 19.6 20.51C19.23 20.73 18.39 21.05 17.72 20.9C17.14 20.77 16.8 20.36 16.32 20.04C15.64 20 14.96 19.96 14.3 19.91C14.24 19.95 14.19 19.99 14.15 20.04C13.82 20.43 13.86 21.18 13.33 21.76C13.24 21.86 13.09 21.94 12.97 21.96C12.73 22.02 12.46 21.95 12.23 21.88C12.09 21.83 11.94 21.77 11.8 21.69C11.81 21.69 11.85 21.68 11.91 21.67C11.95 21.63 12.13 21.57 12.28 21.53C12.4 21.5 12.77 21.37 12.97 20.83C13.01 20.53 12.93 20.19 12.91 19.81C5.19 19.18 0.03 17.98 0 16.56C-0.02 15.22 4.31 14.07 11.51 13.25C11.51 13.25 11.55 13.24 11.6 13.23C11.59 13.21 11.57 13.19 11.55 13.17C11.45 13.04 11.37 12.91 11.29 12.77C11.32 12.76 11.5 12.86 11.73 12.96C12.04 13.02 12.46 12.99 12.69 12.75C13.04 12.38 13.12 11.68 13.73 11.18C14.47 10.58 15.94 11.06 16.46 11.38C17.32 11.9 17.33 12.77 17.86 13.07C18.36 13.35 18.91 13.18 19.53 12.68C19.45 12.62 19.37 12.54 19.27 12.49C18.91 12.26 18.22 11.66 18.02 10.99C17.79 10.25 18.12 9.65 18.04 8.86C17.96 8.08 17.35 7.43 16.97 7.35C16.47 7.24 15.87 7.65 15.12 7.46C14.99 7.43 14.85 7.33 14.77 7.23C14.6 7.04 14.53 6.77 14.48 6.52C14.44 6.37 14.42 6.21 14.42 6.05C14.44 6.06 14.57 6.23 14.72 6.43C14.98 6.62 15.36 6.8 15.67 6.69C16.15 6.52 16.53 5.94 17.29 5.79C18.22 5.6 19.31 6.73 19.63 7.25C20.17 8.13 19.8 8.91 20.14 9.42C20.48 9.93 21.1 10.03 21.97 9.83C21.93 9.76 21.89 9.69 21.84 9.62C21.58 9.26 21.16 8.44 21.22 7.74C21.28 6.96 21.8 6.53 22.02 5.77C22.23 5.02 21.9 4.17 21.58 3.95C21.15 3.66 20.44 3.8 19.82 3.33C19.71 3.25 19.62 3.11 19.58 2.98C19.49 2.74 19.52 2.46 19.56 2.21C19.59 2.05 19.63 1.9 19.69 1.75C19.7 1.76 19.73 1.87 19.78 2.03C19.78 2 19.78 1.98 19.78 1.95C19.78 1.89 19.86 2.14 19.94 2.32C19.95 2.35 19.98 2.41 20.02 2.48C20.18 2.66 20.39 2.81 20.62 2.83C21.12 2.86 21.68 2.47 22.44 2.63C23.36 2.82 23.96 4.29 24.07 4.9C24.25 5.92 23.62 6.5 23.75 7.1C23.86 7.63 24.27 7.94 24.94 8.12C24.94 8.1 24.94 8.09 24.93 8.07C24.84 7.63 24.8 6.7 25.14 6.09C25.51 5.41 26.16 5.26 26.67 4.67C27.17 4.08 27.21 3.16 27.01 2.82C26.75 2.37 26.04 2.19 25.67 1.49C25.61 1.37 25.58 1.2 25.6 1.07C25.62 0.82 25.76 0.57 25.9 0.36C25.99 0.23 26.09 0.11 26.2 0C26.21 0.02 26.17 0.23 26.14 0.49C26.17 0.81 26.31 1.22 26.6 1.39C27.04 1.64 27.71 1.53 28.33 2.01C29.09 2.59 29.04 4.19 28.89 4.79C28.63 5.8 27.82 6.03 27.69 6.64C27.57 7.2 27.85 7.69 28.45 8.17C28.47 8.11 28.5 8.05 28.51 7.98C28.6 7.55 28.95 6.69 29.5 6.29C30.12 5.84 30.77 5.98 31.47 5.67C32.16 5.36 32.58 4.55 32.54 4.15C32.48 3.63 31.92 3.15 31.87 2.35C31.86 2.22 31.91 2.05 31.97 1.94C32.1 1.71 32.32 1.56 32.53 1.43C32.67 1.35 32.81 1.28 32.96 1.23C32.96 1.26 32.84 1.43 32.7 1.65C32.6 1.95 32.56 2.38 32.75 2.66C33.05 3.09 33.7 3.29 34.07 3.99C34.52 4.85 33.81 6.27 33.43 6.75C32.79 7.55 31.96 7.41 31.59 7.9C31.29 8.31 31.3 8.82 31.56 9.43C31.59 9.4 31.61 9.37 31.64 9.34C31.91 9 32.58 8.38 33.25 8.27C33.99 8.15 34.52 8.58 35.28 8.61C36.03 8.65 36.75 8.12 36.88 7.74C37.06 7.24 36.75 6.57 37.05 5.82C37.1 5.7 37.21 5.57 37.32 5.5C37.52 5.35 37.8 5.32 38.04 5.3C38.19 5.29 38.35 5.29 38.5 5.32C38.49 5.33 38.42 5.37 38.32 5.43C38.33 5.44 38.33 5.44 38.34 5.44C38.36 5.5 38.17 5.6 38.02 5.71C37.98 5.73 37.93 5.78 37.88 5.84C37.76 6.04 37.67 6.28 37.71 6.5C37.79 7.02 38.29 7.49 38.33 8.29C38.36 9.27 37.13 10.23 36.58 10.48C35.66 10.9 34.98 10.4 34.44 10.67C33.89 10.96 33.71 11.6 33.78 12.54C33.84 12.51 33.9 12.49 33.95 12.46C34.33 12.25 35.18 11.96 35.84 12.13C36.57 12.32 36.89 12.92 37.58 13.26C38.26 13.6 39.12 13.4 39.39 13.1C39.73 12.72 39.71 11.97 40.26 11.4C40.35 11.31 40.5 11.23 40.63 11.21C40.87 11.17 41.14 11.24 41.36 11.32C41.51 11.38 41.65 11.44 41.79 11.52C41.78 11.53 41.74 11.54 41.68 11.55C41.67 11.56 41.63 11.57 41.57 11.56C41.49 11.57 41.41 11.58 41.32 11.59C41.03 11.72 40.68 11.96 40.61 12.3C40.57 12.48 40.58 12.68 40.59 12.89C49.13 13.62 53.49 14.85 53.6 16.15C53.71 17.48 49.07 18.71 41.99 19.47ZM40.02 19.66C39.49 19.71 38.94 19.76 38.39 19.8C38.79 20.05 39.23 20.13 39.47 20.05C39.67 19.98 39.83 19.83 40.02 19.66ZM32.5 20.14C30.69 20.21 28.8 20.26 26.87 20.27C24.9 20.29 22.97 20.27 21.12 20.22C22.03 21.7 23.48 22.83 25.26 23.26C28.14 23.95 31.02 22.61 32.5 20.14ZM13.31 18.48C13.49 18.3 13.71 18.14 13.95 18.02C11.37 17.59 9.81 17.01 9.81 16.37C9.8 15.58 12.29 14.85 16.1 14.35C16.02 14.09 15.92 13.82 15.76 13.56C15.56 13.25 15.28 13.02 14.99 12.88C15.14 12.96 15.28 13.06 15.42 13.2C15.76 13.55 15.94 14.09 15.94 14.09C11.22 14.65 8.09 15.53 8.1 16.5C8.1 17.28 10.09 17.98 13.31 18.48ZM14.96 12.87C14.95 12.86 14.94 12.86 14.93 12.85C14.94 12.86 14.95 12.86 14.96 12.87ZM14.93 12.85C14.62 12.71 14.33 12.67 14.14 12.72C14.43 12.7 14.69 12.74 14.93 12.85ZM16.67 15.47C16.57 15.36 16.49 15.25 16.42 15.13C14.82 15.48 13.83 15.91 13.83 16.36C13.83 16.95 15.52 17.47 18.18 17.83C18.34 17.65 18.48 17.4 18.6 17.1C17.31 16.91 16.57 16.68 16.65 16.42C16.7 16.27 16.99 16.12 17.5 15.99C17.2 15.87 16.89 15.7 16.67 15.47ZM20.05 16.42C20.3 16.79 23.15 17.06 26.82 17.05C30.49 17.04 33.21 16.79 33.52 16.36C33.48 13.22 31.39 10.39 28.31 9.65C24.69 8.77 21.07 11.11 20.22 14.87C20.11 15.39 20.05 15.91 20.05 16.42ZM20.4 18.67C20.45 18.84 20.51 19 20.58 19.16C22.5 19.25 24.55 19.3 26.7 19.28C28.92 19.27 31.06 19.19 33.03 19.06C33.09 18.91 33.14 18.76 33.19 18.6C31.25 18.73 29.15 18.81 26.94 18.82C24.63 18.84 22.41 18.79 20.4 18.67ZM33.35 17.98C33.41 17.73 33.45 17.49 33.47 17.24C31.69 17.41 29.37 17.52 26.84 17.53C24.28 17.54 21.91 17.44 20.09 17.27C20.12 17.53 20.17 17.79 20.23 18.05C22.18 18.22 24.47 18.31 26.91 18.29C29.25 18.27 31.45 18.16 33.35 17.98ZM34.95 15.7C36.27 15.88 37.02 16.11 37.02 16.37C37.02 16.57 36.59 16.75 35.84 16.91C36.2 17.01 36.58 17.17 36.85 17.43C36.88 17.46 36.89 17.47 36.91 17.5C38.81 17.14 39.96 16.67 39.95 16.18C39.95 15.89 39.56 15.62 38.86 15.38C38.55 15.46 38.27 15.5 38.08 15.51C37.07 15.53 36.63 14.79 36.03 14.83C35.56 14.85 35.22 15.16 34.95 15.7ZM45.25 16.26C45.26 15.16 41.25 14.48 40.43 14.36C40.39 14.43 40.34 14.51 40.28 14.57C42.63 15 44.03 15.54 44.04 16.15C44.05 16.98 41.42 17.73 37.35 18.23C37.41 18.37 37.46 18.51 37.52 18.66C42.2 18.09 45.25 17.21 45.25 16.26Z" />
</svg>