<svg width="24" height="24" viewBox="0 0 24 24" fill="none" xmlns="http://www.w3.org/2000/svg">
<g clip-path="url(#clip0)">
<path d="M5.24537e-07 12C2.35298e-07 18.617 5.38298 24 12 24C18.617 24 24 18.617 24 12C24 5.38299 18.617 8.13776e-07 12 5.24537e-07C5.38299 2.35298e-07 8.13776e-07 5.38298 5.24537e-07 12ZM12.707 8.29298L17.707 13.293C17.902 13.488 18 13.744 18 14C18 14.256 17.902 14.512 17.707 14.707C17.316 15.098 16.684 15.098 16.293 14.707L12 10.414L7.707 14.707C7.31602 15.098 6.684 15.098 6.29302 14.707C5.90203 14.316 5.90203 13.684 6.29302 13.293L11.293 8.29298C11.684 7.902 12.316 7.902 12.707 8.29298Z" fill="#632467"/>
</g>
<defs>
<clipPath id="clip0">
<rect width="24" height="24" fill="white"/>
</clipPath>
</defs>
</svg>
